{"title":"Sultan 2016 Hindi Version 2 DVDScr 700MB MKV - PARAS","uid":15390956,"size":892768907,"categoryP":"video","categoryS":"movies","magnet":"?xt=urn:btih:60e7f78aa91dec28cd3b2ff08712737a98721439&amp;dn=Sultan+2016+Hindi+Version+2+DVDScr+700MB+MKV+-+PARAS&amp;tr=udp%3A%2F%2Ftracker.leechers-paradise.org%3A6969&amp;tr=udp%3A%2F%2Fzer0day.ch%3A1337&amp;tr=udp%3A%2F%2Fopen.demonii.com%3A1337&amp;tr=udp%3A%2F%2Ftracker.coppersurfer.tk%3A6969&amp;tr=udp%3A%2F%2Fexodus.desync.com%3A6969","seeders":12,"leechers":3,"uploader":"hozex","files":1,"time":1469339136,"description":"General\r\nUnique ID                                : 238433206317426410386125739349309632673 (0xB36090AF866734C3A0529F3144EBB0A1)\r\nComplete name                            : Sultan 2016 Hindi Version 2 DVDScr 700MB MKV -   @S.mkv\r\nFormat                                   : Matroska\r\nFormat version                           : Version 4 / Version 2\r\nFile size                                : 851 MiB\r\nDuration                                 : 2h 49mn\r\nOverall bit rate                         : 703 Kbps\r\nMovie name                               : Sultan 2016 Hindi Version 2 DVDScr 700MB MKV -   @S\r\nEncoded date                             : UTC 2016-07-17 09:36:25\r\nWriting application                      : mkvmerge v9.2.0 ('Photograph') 64bit\r\nWriting library                          : libebml v1.3.3 + libmatroska v1.4.4\r\nDURATION                                 : 02:49:21.554000000\r\nNUMBER_OF_FRAMES                         : 388997\r\nNUMBER_OF_BYTES                          : 243877303\r\n_STATISTICS_WRITING_APP                  : mkvmerge v9.2.0 ('Photograph') 64bit\r\n_STATISTICS_WRITING_DATE_UTC             : 2016-07-17 09:36:25\r\n_STATISTICS_TAGS                         : BPS DURATION NUMBER_OF_FRAMES NUMBER_OF_BYTES\r\n\r\nVideo\r\nID                                       : 1\r\nFormat                                   : AVC\r\nFormat/Info                              : Advanced Video Codec\r\nFormat profile                           :   \r\nFormat settings, CABAC                   : Yes\r\nFormat settings, ReFrames                : 4 frames\r\nCodec ID                                 : V_MPEG4/ISO/AVC\r\nDuration                                 : 2h 49mn\r\nBit rate                                 : 509 Kbps\r\nWidth                                    : 640 pixels\r\nHeight                                   : 272 pixels\r\nDisplay aspect ratio                     : 2.35:1\r\nFrame rate mode                          : Constant\r\nFrame rate                               : 23.976 fps\r\nColor space                              : YUV\r\nChroma subsampling                       : 4:2:0\r\nBit depth                                : 8 bits\r\nScan type                                : Progressive\r\nBits/(Pixel*Frame)                       : 0.122\r\nStream size                              : 602 MiB (71%)\r\nTitle                                    : Www.Allinonefirst.Com -   @S\r\nWriting library                          : x264 core 142 r2431 ac76440\r\nEncoding settings                        : cabac=1 / ref=3 / deblock=1:0:0 / analyse=0x3:0x113 / me=hex / subme=7 / psy=1 / psy_rd=1.00:0.00 / mixed_ref=1 / me_range=16 / chroma_me=1 / trellis=1 / 8x8dct=1 / cqm=0 / deadzone=21,11 / fast_pskip=1 / chroma_qp_offset=-2 / threads=1 / lookahead_threads=1 / sliced_threads=0 / nr=0 / decimate=1 / interlaced=0 / bluray_compat=0 / constrained_intra=0 / bframes=3 / b_pyramid=2 / b_adapt=1 / b_bias=0 / direct=1 / weightb=1 / open_gop=0 / weightp=2 / keyint=240 / keyint_min=23 / scenecut=40 / intra_refresh=0 / rc_lookahead=40 / rc=2pass / mbtree=1 / bitrate=509 / ratetol=1.0 / qcomp=0.60 / qpmin=0 / qpmax=69 / qpstep=4 / cplxblur=20.0 / qblur=0.5 / ip_ratio=1.40 / aq=1:1.00\r\nLanguage                                 : Hindi\r\nDefault                                  : Yes\r\nForced                                   : No\r\n\r\nAudio\r\nID                                       : 3\r\nFormat                                   : MPEG Audio\r\nFormat version                           : Version 1\r\nFormat profile                           : Layer 3\r\nCodec ID                                 : A_MPEG/L3\r\nCodec ID/Hint                            : MP3\r\nDuration                                 : 2h 49mn\r\nBit rate mode                            : Constant\r\nBit rate                                 : 192 Kbps\r\nChannel(s)                               : 2 channels\r\nSampling rate                            : 44.1 KHz\r\nCompression mode                         : Lossy\r\nStream size                              : 233 MiB (27%)\r\nTitle                                    : Www.Allinonefirst.Com -   @S\r\nLanguage                                 : Hindi\r\nDefault                                  : Yes\r\nForced                                   : No\r\n\r\nText\r\nID                                       : 2\r\nFormat                                   : ASS\r\nCodec ID                                 : S_TEXT/ASS\r\nCodec ID/Info                            : Advanced Sub Station Alpha\r\nCompression mode                         : Lossless\r\nTitle                                    : Www.Allinonefirst.Com -   @S\r\nLanguage                                 : Hindi\r\nDefault                                  : Yes\r\nForced                                   : No\r\n\r\nMenu\r\n00:00:00.000                             : en:Www.Allinonefirst.Com -   @S","torrent":{"xt":"urn:btih:60e7f78aa91dec28cd3b2ff08712737a98721439","amp;dn":"Sultan+2016+Hindi+Version+2+DVDScr+700MB+MKV+-+PARAS","amp;tr":["udp%3A%2F%2Ftracker.leechers-paradise.org%3A6969","udp%3A%2F%2Fzer0day.ch%3A1337","udp%3A%2F%2Fopen.demonii.com%3A1337","udp%3A%2F%2Ftracker.coppersurfer.tk%3A6969","udp%3A%2F%2Fexodus.desync.com%3A6969"],"infoHash":"60e7f78aa91dec28cd3b2ff08712737a98721439","infoHashBuffer":{"type":"Buffer","data":[96,231,247,138,169,29,236,40,205,59,47,240,135,18,115,122,152,114,20,57]},"announce":[],"urlList":[]}}